<svg version="1.1" id="Layer_1" xmlns="http://www.w3.org/2000/svg" xmlns:xlink="http://www.w3.org/1999/xlink" x="0px" y="0px"
	 width="100%" viewBox="0 0 208 208" enable-background="new 0 0 208 208" xml:space="preserve">
<path fill="#000000" opacity="1.000000" stroke="none" 
	d="
M202.105896,102.377945 
	C203.349731,145.167145 185.436203,176.531128 147.435059,195.310196 
	C106.876266,215.353180 54.910355,200.418594 30.007601,162.493637 
	C3.238430,121.726219 10.436118,69.758537 47.270561,37.854206 
	C85.128777,5.063131 144.482758,9.281270 177.891891,46.665726 
	C192.122330,62.589447 199.587448,81.057327 202.105896,102.377945 
M129.707779,128.785309 
	C126.263184,124.921623 122.818588,121.057938 118.482620,116.194420 
	C121.177826,128.047195 123.546417,138.463623 125.915009,148.880051 
	C125.546715,149.049911 125.178413,149.219772 124.810120,149.389633 
	C118.998657,141.077209 113.187187,132.764771 106.928192,123.812202 
	C104.202614,128.611420 102.024475,132.446716 99.647453,136.632217 
	C96.895691,133.403275 98.075798,129.409943 95.887886,126.323593 
	C88.398407,135.149887 80.985794,143.885620 73.573174,152.621338 
	C73.202644,152.383682 72.832115,152.146042 72.461586,151.908386 
	C75.769676,143.160263 79.077766,134.412140 82.784264,124.610443 
	C75.012787,128.926239 67.671883,132.141891 62.127674,137.478973 
	C55.082321,144.261124 49.243690,152.286942 42.749516,159.657349 
	C40.684361,162.001160 40.728302,163.608109 42.898869,165.963242 
	C64.327522,189.213959 90.571182,199.418091 121.971184,194.581009 
	C145.288879,190.988968 163.840164,179.097992 177.728210,159.995239 
	C179.012299,158.229004 180.328354,156.709274 178.374390,154.311813 
	C167.142349,140.530487 154.768768,128.084717 138.926361,119.554146 
	C138.213608,119.170349 137.489487,118.661209 136.396225,119.657570 
	C136.104630,125.090393 138.630035,130.632629 137.857208,137.104721 
	C134.183533,134.926208 132.551102,131.733475 129.707779,128.785309 
M75.655281,88.853050 
	C77.777206,91.196304 80.032288,93.434555 81.985359,95.910980 
	C84.139404,98.642227 85.897339,98.795593 88.375328,96.164856 
	C94.309189,89.865211 100.541031,83.846710 106.496223,77.566460 
	C108.490570,75.463257 110.027390,74.945129 112.260818,77.160324 
	C114.856819,79.735138 117.847366,81.917953 120.390396,84.538948 
	C123.601807,87.848801 126.009521,88.046562 129.246582,84.227417 
	C136.991608,75.089668 145.177887,66.326820 153.143738,57.374992 
	C157.987640,51.931519 157.858826,51.996880 162.960464,56.924351 
	C172.039795,65.693726 181.244736,74.333054 189.080795,81.776390 
	C180.171448,48.737122 141.293472,16.655470 92.054077,25.396238 
	C51.051208,32.674889 25.703119,69.724487 24.860292,93.256340 
	C35.157616,84.309776 42.992638,73.527992 52.921665,64.174446 
	C60.569065,72.479546 67.869453,80.407791 75.655281,88.853050 
M193.558594,119.973763 
	C193.613373,118.143288 193.455215,116.276680 193.758621,114.488388 
	C195.338348,105.177292 192.920654,97.516945 185.045761,91.807556 
	C183.186218,90.459366 181.709869,88.560036 180.143066,86.836227 
	C178.114227,84.604080 175.763702,83.529861 172.656189,84.174980 
	C171.817627,88.060356 174.458771,91.541817 173.632736,95.248398 
	C167.934982,94.017143 166.954819,83.956963 159.054321,88.258133 
	C157.370728,87.347206 157.062897,85.017990 154.692230,84.610313 
	C151.053741,86.772781 150.542175,92.115288 145.670212,94.560410 
	C146.459824,90.372536 147.274139,86.870224 146.193771,82.750763 
	C142.444611,85.316116 139.134201,87.498795 135.913788,89.807022 
	C132.398041,92.326927 131.870758,94.530594 135.533218,97.994003 
	C152.106430,113.666496 168.342590,129.692154 183.199829,147.043427 
	C183.650162,147.569351 184.151794,147.969254 185.133270,147.627441 
	C189.808609,139.413116 191.894196,130.229752 193.558594,119.973763 
M39.561573,101.423637 
	C39.532093,100.031616 41.177406,98.803932 39.761826,96.913399 
	C36.739391,98.573875 33.650837,100.134911 30.699089,101.921913 
	C25.332039,105.171143 21.532131,109.136856 22.225946,116.307236 
	C22.903166,123.306076 24.347639,130.061050 26.523197,136.678909 
	C28.579512,142.934036 30.782141,149.165482 35.099609,154.277802 
	C35.704334,154.018402 36.097767,153.970306 36.294334,153.748077 
	C49.951813,138.308640 63.202919,122.507133 77.453911,107.596664 
	C78.449806,106.554672 79.099991,105.385406 77.945206,104.089447 
	C73.658333,99.278450 69.247612,94.608116 62.900700,91.686501 
	C61.450092,97.425697 64.714241,103.020073 62.386360,108.666504 
	C57.912273,105.594185 56.243328,100.428848 51.701187,97.251274 
	C46.555641,103.358238 41.511341,109.345039 35.516277,116.460251 
	C36.015575,110.346397 38.192188,106.369095 39.561573,101.423637 
z"/>
</svg>